#!OML:ASF F:\VICON\USERDATA\INSTALL\Justin_Nancy\Justin_Nancy.ASF
:FULLY-SPECIFIED
:DEGREES
130
root 0.692628 17.6114 -24.4907 7.07501 -3.08885 -0.415142
lowerback 4.04416 2.49337 0.331524
upperback 0.147568 3.35911 0.984307
thorax -2.15265 1.67638 0.627692
lowerneck -14.2985 -4.30633 -9.09233
upperneck 20.2325 -5.23399 6.33523
head 9.12165 -2.48373 3.04488
rclavicle 4.1546e-014 0
rhumerus -31.7468 -11.4616 -81.8813
rradius 28.6752
rwrist 9.03922
rhand -14.1398 9.65188
rfingers 7.12502
rthumb 11.9943 -19.9845
lclavicle 4.1546e-014 0
lhumerus -38.3232 28.2893 71.2033
lradius 18.1135
lwrist -21.8967
lhand -10.0251 23.9527
lfingers 7.12502
lthumb 15.9595 53.3152
rfemur 12.3707 4.16027 24.9186
rtibia 19.4585
rfoot 2.19131 -2.77722
rtoes -10.4346
lfemur -29.6791 -3.18913 -19.5068
ltibia 22.9546
lfoot -7.10381 0.896261
ltoes -4.81219
131
root 0.698619 17.6332 -24.3278 7.20859 -3.25493 -0.228748
lowerback 3.77391 2.54183 -0.0369023
upperback 0.131544 3.40531 0.959018
thorax -2.03818 1.70333 0.816689
lowerneck -14.7816 -4.36448 -9.16314
upperneck 20.5978 -5.27221 6.34445
head 9.34364 -2.49891 3.05285
rclavicle 2.94201e-014 1.31198e-014
rhumerus -31.9033 -11.2269 -81.9255
rradius 28.5959
rwrist 8.82929
rhand -13.7312 9.09077
rfingers 7.12502
rthumb 12.3883 -20.5222
lclavicle 2.94201e-014 1.31198e-014
lhumerus -37.985 27.7408 71.7268
lradius 18.3316
lwrist -21.2958
lhand -10.0559 24.0683
lfingers 7.12502
lthumb 15.9298 53.4332
rfemur 11.2318 4.14736 24.523
rtibia 21.6314
rfoot 4.20763 -2.4481
rtoes -8.94479
lfemur -29.0977 -2.41411 -19.9359
ltibia 22.7092
lfoot -7.12525 0.578522
ltoes -6.49028
132
root 0.707105 17.6485 -24.1716 7.23495 -3.20159 -0.136723
lowerback 3.72646 2.58096 -0.174334
upperback 0.0364437 3.45107 0.894728
thorax -2.11418 1.72757 0.824348
lowerneck -14.6653 -4.40486 -9.09094
upperneck 20.5737 -5.35196 6.32706
head 9.31788 -2.53425 3.0254
rclavicle -5.96354e-014 -6.75868e-015
rhumerus -32.2324 -11.211 -81.8946
rradius 28.5759
rwrist 9.12911
rhand -13.5786 9.11108
rfingers 7.12502
rthumb 12.5355 -20.4929
lclavicle -5.96354e-014 -6.75868e-015
lhumerus -37.7274 26.0284 72.7266
lradius 19.0015
lwrist -19.699
lhand -9.79148 25.4103
lfingers 7.12502
lthumb 16.1844 54.7546
rfemur 10.0876 3.98591 24.2721
rtibia 23.8189
rfoot 6.26735 -2.50383
rtoes -6.877
lfemur -28.5018 -1.99584 -20.1832
ltibia 22.5414
lfoot -7.19741 0.422026
ltoes -6.50924
133
root 0.722843 17.6595 -24.016 7.13163 -3.16343 -0.0359446
lowerback 3.90869 2.63945 -0.314275
upperback -0.127637 3.52363 0.848874
thorax -2.39176 1.76569 0.837118
lowerneck -14.3405 -4.4322 -8.98365
upperneck 20.5147 -5.42873 6.2659
head 9.23866 -2.57384 2.97977
rclavicle 9.34288e-015 -6.36111e-015
rhumerus -32.7056 -11.1939 -81.7739
rradius 28.5471
rwrist 9.43477
rhand -13.6428 9.79141
rfingers 7.12502
rthumb 12.4735 -19.8163
lclavicle 9.34288e-015 -6.36111e-015
lhumerus -37.747 25.0413 73.148
lradius 19.4335
lwrist -19.038
lhand -9.53855 24.9966
lfingers 7.12502
lthumb 16.428 54.321
rfemur 9.04848 3.66504 23.9201
rtibia 26.0573
rfoot 8.2735 -2.56214
rtoes -4.45945
lfemur -27.8009 -1.78404 -20.4173
ltibia 22.4232
lfoot -7.11618 0.513345
ltoes -6.36856
134
root 0.746344 17.6665 -23.8606 7.08614 -3.20242 0.149849
lowerback 3.98096 2.65379 -0.42758
upperback -0.217278 3.53633 0.773467
thorax -2.52681 1.77337 0.815847
lowerneck -14.2485 -4.46799 -9.11672
upperneck 20.4998 -5.48769 6.40852
head 9.22967 -2.59843 3.04497
rclavicle 2.48481e-015 3.18055e-015
rhumerus -33.0676 -10.9548 -81.7856
rradius 28.6934
rwrist 9.56428
rhand -13.772 10.068
rfingers 7.12502
rthumb 12.349 -19.5473
lclavicle 2.48481e-015 3.18055e-015
lhumerus -37.7466 24.7089 73.3157
lradius 19.7946
lwrist -18.9011
lhand -9.77469 23.4938
lfingers 7.12502
lthumb 16.2006 52.8369
rfemur 7.91311 3.22411 23.3554
rtibia 28.3744
rfoot 10.0348 -2.08326
rtoes -2.63504
lfemur -27.1453 -1.58867 -20.7716
ltibia 22.3072
lfoot -7.0315 0.559791
ltoes -6.56592
